<?xml version="1.0" encoding="UTF-8" standalone="no"?>
<!-- Generator: Adobe Illustrator 19.2.1, SVG Export Plug-In . SVG Version: 6.00 Build 0)  -->

<svg
   xmlns:dc="http://purl.org/dc/elements/1.1/"
   xmlns:cc="http://creativecommons.org/ns#"
   xmlns:rdf="http://www.w3.org/1999/02/22-rdf-syntax-ns#"
   xmlns:svg="http://www.w3.org/2000/svg"
   xmlns="http://www.w3.org/2000/svg"
   xmlns:sodipodi="http://sodipodi.sourceforge.net/DTD/sodipodi-0.dtd"
   xmlns:inkscape="http://www.inkscape.org/namespaces/inkscape"
   version="1.1"
   x="0px"
   y="0px"
   viewBox="0 0 198 99"
   style="enable-background:new 0 0 198 99;"
   xml:space="preserve"
   id="svg2"
   inkscape:version="0.48.3.1 r9886"
   width="100%"
   height="100%"
   sodipodi:docname="buttons.svg"><metadata
   id="metadata400"><rdf:RDF><cc:Work
       rdf:about=""><dc:format>image/svg+xml</dc:format><dc:type
         rdf:resource="http://purl.org/dc/dcmitype/StillImage" /></cc:Work></rdf:RDF></metadata><defs
   id="defs398" /><sodipodi:namedview
   pagecolor="#ffffff"
   bordercolor="#666666"
   borderopacity="1"
   objecttolerance="10"
   gridtolerance="10"
   guidetolerance="10"
   inkscape:pageopacity="0"
   inkscape:pageshadow="2"
   inkscape:window-width="1280"
   inkscape:window-height="996"
   id="namedview396"
   showgrid="false"
   inkscape:zoom="8.2281516"
   inkscape:cx="183.05075"
   inkscape:cy="19.915058"
   inkscape:window-x="1280"
   inkscape:window-y="0"
   inkscape:window-maximized="1"
   inkscape:current-layer="svg2" />
<style
   type="text/css"
   id="style4">
	.st0{fill:#FFFFFF;}
	.st1{fill:#CC3230;}
	.st2{opacity:0.61;fill:#FFFFFF;}
	.st3{fill:none;stroke:#FFFFFF;stroke-miterlimit:10;}
</style>
<g
   id="Layer_1"
   inkscape:version="0.48.4 r9939"
   sodipodi:docname="buttons.svg">
	
		<sodipodi:namedview
   bordercolor="#666666"
   borderopacity="1"
   gridtolerance="10"
   guidetolerance="10"
   id="namedview323"
   inkscape:current-layer="Layer_1"
   inkscape:cx="45.252385"
   inkscape:cy="36.224987"
   inkscape:guide-bbox="true"
   inkscape:pageopacity="0"
   inkscape:pageshadow="2"
   inkscape:window-height="1059"
   inkscape:window-maximized="1"
   inkscape:window-width="1920"
   inkscape:window-x="0"
   inkscape:window-y="21"
   inkscape:zoom="14.5625"
   objecttolerance="10"
   pagecolor="#ffffff"
   showgrid="false"
   showguides="true">
		</sodipodi:namedview>
</g>
<g
   id="Layer_2">
	<circle
   id="circle7_2_"
   class="st0"
   cx="16.5"
   cy="16.6"
   r="12" />
	<g
   id="polyline9_2_">
		<polygon
   class="st1"
   points="15.8,22.3 10.9,17.5 12.5,15.8 15.5,18.8 20.4,12.1 22.3,13.4   "
   id="polygon11" />
	</g>
	<circle
   id="circle13_2_"
   class="st2"
   cx="16.5"
   cy="49.5"
   r="12" />
	<g
   id="polyline15_2_">
		<polygon
   class="st1"
   points="15.8,55.2 10.9,50.3 12.5,48.7 15.5,51.7 20.4,44.9 22.3,46.3   "
   id="polygon15" />
	</g>
	<circle
   id="circle19_5_"
   class="st3"
   cx="16.5"
   cy="82.5"
   r="12"
   style="stroke-width:1.5;stroke-miterlimit:10;stroke-dasharray:none" />
	<g
   id="polyline21_5_">
		<polygon
   class="st0"
   points="15.8,88.2 10.9,83.4 12.5,81.7 15.5,84.7 20.4,77.9 22.3,79.3   "
   id="polygon19" />
	</g>
	<circle
   id="circle25_2_"
   class="st0"
   cx="49.5"
   cy="16.6"
   r="12" />
	<g
   id="polygon27_2_">
		<polygon
   class="st1"
   points="45.2,15.3 49,15.3 49,11.5 54.4,16.9 49.1,22.2 49.1,18.6 45.2,18.5   "
   id="polygon23" />
	</g>
	<circle
   id="circle31_2_"
   class="st2"
   cx="49.5"
   cy="49.5"
   r="12" />
	<g
   id="polygon33_2_">
		<polygon
   class="st1"
   points="45.2,48.2 49,48.2 49,44.4 54.4,49.7 49.1,55.1 49.1,51.4 45.2,51.4   "
   id="polygon27" />
	</g>
	<circle
   id="circle37_2_"
   class="st3"
   cx="49.5"
   cy="82.5"
   r="12"
   style="stroke-width:1.5;stroke-miterlimit:10;stroke-dasharray:none" />
	<g
   id="polygon39_2_">
		<polygon
   class="st0"
   points="45.2,81.2 49,81.2 49,77.4 54.4,82.7 49.1,88.1 49.1,84.4 45.2,84.4   "
   id="polygon31" />
	</g>
	<rect
   id="rect43_2_"
   x="105"
   y="6.1"
   class="st0"
   width="21"
   height="21" />
	<g
   id="polygon45_2_">
		<polygon
   class="st1"
   points="113.9,19.1 113.9,15.1 110,15.1 115.5,9.6 121,15.1 117.2,15.1 117.2,19.1   "
   id="polygon35" />
	</g>
	<g
   id="rect47_2_">
		<rect
   x="110"
   y="22.2"
   class="st1"
   width="1"
   height="1"
   id="rect38" />
	</g>
	<g
   id="rect49_2_">
		<rect
   x="112"
   y="22.2"
   class="st1"
   width="1"
   height="1"
   id="rect41" />
	</g>
	<g
   id="rect51_2_">
		<rect
   x="114"
   y="22.2"
   class="st1"
   width="1"
   height="1"
   id="rect44" />
	</g>
	<g
   id="rect53_2_">
		<rect
   x="116"
   y="22.2"
   class="st1"
   width="1"
   height="1"
   id="rect47" />
	</g>
	<g
   id="rect55_2_">
		<rect
   x="118"
   y="22.2"
   class="st1"
   width="1"
   height="1"
   id="rect50" />
	</g>
	<g
   id="rect57_2_">
		<rect
   x="120"
   y="22.2"
   class="st1"
   width="1"
   height="1"
   id="rect53" />
	</g>
	<rect
   id="rect61_2_"
   x="138"
   y="6.1"
   class="st0"
   width="21"
   height="21" />
	<g
   id="polygon63_2_">
		<polygon
   class="st1"
   points="150.1,9.6 150.1,13.6 154,13.6 148.5,19.1 143,13.6 146.8,13.6 146.8,9.6   "
   id="polygon57" />
	</g>
	<g
   id="rect65_2_">
		<rect
   x="143"
   y="22.2"
   class="st1"
   width="1"
   height="1"
   id="rect60" />
	</g>
	<g
   id="rect67_2_">
		<rect
   x="145"
   y="22.2"
   class="st1"
   width="1"
   height="1"
   id="rect63" />
	</g>
	<g
   id="rect69_2_">
		<rect
   x="147"
   y="22.2"
   class="st1"
   width="1"
   height="1"
   id="rect66" />
	</g>
	<g
   id="rect71_2_">
		<rect
   x="149"
   y="22.2"
   class="st1"
   width="1"
   height="1"
   id="rect69" />
	</g>
	<g
   id="rect73_2_">
		<rect
   x="151"
   y="22.2"
   class="st1"
   width="1"
   height="1"
   id="rect72" />
	</g>
	<g
   id="rect75_2_">
		<rect
   x="153"
   y="22.2"
   class="st1"
   width="1"
   height="1"
   id="rect75" />
	</g>
	<rect
   id="rect79_2_"
   x="105"
   y="39"
   class="st2"
   width="21"
   height="21" />
	<g
   id="polygon81_2_">
		<polygon
   class="st1"
   points="113.9,51.9 113.9,48 110,48 115.5,42.5 121,47.9 117.2,47.9 117.2,51.9   "
   id="polygon79" />
	</g>
	<g
   id="rect83_2_">
		<rect
   x="110"
   y="55"
   class="st1"
   width="1"
   height="1"
   id="rect82" />
	</g>
	<g
   id="rect85_2_">
		<rect
   x="112"
   y="55"
   class="st1"
   width="1"
   height="1"
   id="rect85" />
	</g>
	<g
   id="rect87_2_">
		<rect
   x="114"
   y="55"
   class="st1"
   width="1"
   height="1"
   id="rect88" />
	</g>
	<g
   id="rect89_2_">
		<rect
   x="116"
   y="55"
   class="st1"
   width="1"
   height="1"
   id="rect91" />
	</g>
	<g
   id="rect91_2_">
		<rect
   x="118"
   y="55"
   class="st1"
   width="1"
   height="1"
   id="rect94" />
	</g>
	<g
   id="rect93_2_">
		<rect
   x="120"
   y="55"
   class="st1"
   width="1"
   height="1"
   id="rect97" />
	</g>
	<rect
   id="rect97_2_"
   x="138"
   y="39"
   class="st2"
   width="21"
   height="21" />
	<g
   id="polygon99_2_">
		<polygon
   class="st1"
   points="150.1,42.5 150.1,46.4 154,46.4 148.5,51.9 143,46.5 146.8,46.5 146.8,42.5   "
   id="polygon101" />
	</g>
	<g
   id="rect101_2_">
		<rect
   x="143"
   y="55"
   class="st1"
   width="1"
   height="1"
   id="rect104" />
	</g>
	<g
   id="rect103_2_">
		<rect
   x="145"
   y="55"
   class="st1"
   width="1"
   height="1"
   id="rect107" />
	</g>
	<g
   id="rect105_2_">
		<rect
   x="147"
   y="55"
   class="st1"
   width="1"
   height="1"
   id="rect110" />
	</g>
	<g
   id="rect107_2_">
		<rect
   x="149"
   y="55"
   class="st1"
   width="1"
   height="1"
   id="rect113" />
	</g>
	<g
   id="rect109_2_">
		<rect
   x="151"
   y="55"
   class="st1"
   width="1"
   height="1"
   id="rect116" />
	</g>
	<g
   id="rect111_2_">
		<rect
   x="153"
   y="55"
   class="st1"
   width="1"
   height="1"
   id="rect119" />
	</g>
	<rect
   id="rect115_2_"
   x="105"
   y="72"
   class="st3"
   width="21"
   height="21"
   style="stroke-width:1.5;stroke-miterlimit:10;stroke-dasharray:none" />
	<g
   id="polygon117_2_">
		<polygon
   class="st0"
   points="113.9,84.9 113.9,81 110,81 115.5,75.5 121,81 117.2,81 117.2,84.9   "
   id="polygon123" />
	</g>
	<g
   id="rect119_2_">
		<rect
   x="110"
   y="88.1"
   class="st0"
   width="1"
   height="1"
   id="rect126" />
	</g>
	<g
   id="rect121_2_">
		<rect
   x="112"
   y="88.1"
   class="st0"
   width="1"
   height="1"
   id="rect129" />
	</g>
	<g
   id="rect123_2_">
		<rect
   x="114"
   y="88.1"
   class="st0"
   width="1"
   height="1"
   id="rect132" />
	</g>
	<g
   id="rect125_2_">
		<rect
   x="116"
   y="88.1"
   class="st0"
   width="1"
   height="1"
   id="rect135" />
	</g>
	<g
   id="rect127_2_">
		<rect
   x="118"
   y="88.1"
   class="st0"
   width="1"
   height="1"
   id="rect138" />
	</g>
	<g
   id="rect129_2_">
		<rect
   x="120"
   y="88.1"
   class="st0"
   width="1"
   height="1"
   id="rect141" />
	</g>
	<rect
   id="rect133_2_"
   x="138"
   y="72"
   class="st3"
   width="21"
   height="21"
   style="stroke-width:1.5;stroke-miterlimit:10;stroke-dasharray:none" />
	<g
   id="polygon135_2_">
		<polygon
   class="st0"
   points="150.1,75.5 150.1,79.5 154,79.5 148.5,84.9 143,79.5 146.8,79.5 146.8,75.5   "
   id="polygon145" />
	</g>
	<g
   id="rect137_2_">
		<rect
   x="143"
   y="88.1"
   class="st0"
   width="1"
   height="1"
   id="rect148" />
	</g>
	<g
   id="rect139_2_">
		<rect
   x="145"
   y="88.1"
   class="st0"
   width="1"
   height="1"
   id="rect151" />
	</g>
	<g
   id="rect141_2_">
		<rect
   x="147"
   y="88.1"
   class="st0"
   width="1"
   height="1"
   id="rect154" />
	</g>
	<g
   id="rect143_2_">
		<rect
   x="149"
   y="88.1"
   class="st0"
   width="1"
   height="1"
   id="rect157" />
	</g>
	<g
   id="rect145_2_">
		<rect
   x="151"
   y="88.1"
   class="st0"
   width="1"
   height="1"
   id="rect160" />
	</g>
	<g
   id="rect147_2_">
		<rect
   x="153"
   y="88.1"
   class="st0"
   width="1"
   height="1"
   id="rect163" />
	</g>
	<g
   id="path151_2_">
		<path
   connector-curvature="0"
   class="st1"
   d="M87,22.1"
   id="path166" />
	</g>
	<rect
   id="rect153_2_"
   x="72"
   y="6.1"
   class="st0"
   width="21"
   height="21" />
	<g
   id="polygon155_2_">
		<polygon
   class="st1"
   points="83,10.1 84,10.1 88,14.1 88,15.1 87,15.1 83,15.1   "
   id="polygon170" />
	</g>
	<g
   id="polygon157_2_">
		<polygon
   class="st1"
   points="78,11.1 78,22.1 87,22.1 87,14.9 88,14.9 88,23.1 77,23.1 77,10.1 83.2,10.1 83.2,11.1   "
   id="polygon173" />
	</g>
	<g
   id="rect159_2_">
		<rect
   x="79"
   y="12.1"
   class="st1"
   width="1"
   height="1"
   id="rect176" />
	</g>
	<g
   id="rect161_2_">
		<rect
   x="81"
   y="12.1"
   class="st1"
   width="1"
   height="1"
   id="rect179" />
	</g>
	<g
   id="rect163_2_">
		<rect
   x="79"
   y="14.1"
   class="st1"
   width="1"
   height="1"
   id="rect182" />
	</g>
	<g
   id="rect165_2_">
		<rect
   x="81"
   y="14.1"
   class="st1"
   width="1"
   height="1"
   id="rect185" />
	</g>
	<g
   id="rect167_2_">
		<rect
   x="79"
   y="16.1"
   class="st1"
   width="1"
   height="1"
   id="rect188" />
	</g>
	<g
   id="rect169_2_">
		<rect
   x="81"
   y="16.1"
   class="st1"
   width="1"
   height="1"
   id="rect191" />
	</g>
	<g
   id="rect171_2_">
		<rect
   x="83"
   y="16.1"
   class="st1"
   width="1"
   height="1"
   id="rect194" />
	</g>
	<g
   id="rect173_2_">
		<rect
   x="85"
   y="16.1"
   class="st1"
   width="1"
   height="1"
   id="rect197" />
	</g>
	<g
   id="rect175_2_">
		<rect
   x="79"
   y="18.1"
   class="st1"
   width="1"
   height="1"
   id="rect200" />
	</g>
	<g
   id="rect177_2_">
		<rect
   x="81"
   y="18.1"
   class="st1"
   width="1"
   height="1"
   id="rect203" />
	</g>
	<g
   id="rect179_2_">
		<rect
   x="79"
   y="20.1"
   class="st1"
   width="1"
   height="1"
   id="rect206" />
	</g>
	<g
   id="rect181_2_">
		<rect
   x="81"
   y="20.1"
   class="st1"
   width="1"
   height="1"
   id="rect209" />
	</g>
	<g
   id="rect183_2_">
		<rect
   x="83"
   y="18.1"
   class="st1"
   width="1"
   height="1"
   id="rect212" />
	</g>
	<g
   id="rect185_2_">
		<rect
   x="85"
   y="18.1"
   class="st1"
   width="1"
   height="1"
   id="rect215" />
	</g>
	<g
   id="rect187_2_">
		<rect
   x="83"
   y="20.1"
   class="st1"
   width="1"
   height="1"
   id="rect218" />
	</g>
	<g
   id="rect189_2_">
		<rect
   x="85"
   y="20.1"
   class="st1"
   width="1"
   height="1"
   id="rect221" />
	</g>
	<g
   id="path193_2_">
		<path
   connector-curvature="0"
   class="st1"
   d="M87,55"
   id="path224" />
	</g>
	<rect
   id="rect195_2_"
   x="72"
   y="39"
   class="st2"
   width="21"
   height="21" />
	<g
   id="polygon197_2_">
		<polygon
   class="st1"
   points="83,42.9 84,42.9 88,46.9 88,47.9 87,47.9 83,47.9   "
   id="polygon228" />
	</g>
	<g
   id="polygon199_2_">
		<polygon
   class="st1"
   points="78,43.9 78,55 87,55 87,47.7 88,47.7 88,56 77,56 77,42.9 83.2,42.9 83.2,44   "
   id="polygon231" />
	</g>
	<g
   id="rect201_2_">
		<rect
   x="79"
   y="45"
   class="st1"
   width="1"
   height="1"
   id="rect234" />
	</g>
	<g
   id="rect203_2_">
		<rect
   x="81"
   y="45"
   class="st1"
   width="1"
   height="1"
   id="rect237" />
	</g>
	<g
   id="rect205_2_">
		<rect
   x="79"
   y="47"
   class="st1"
   width="1"
   height="1"
   id="rect240" />
	</g>
	<g
   id="rect207_2_">
		<rect
   x="81"
   y="47"
   class="st1"
   width="1"
   height="1"
   id="rect243" />
	</g>
	<g
   id="rect209_2_">
		<rect
   x="79"
   y="49"
   class="st1"
   width="1"
   height="1"
   id="rect246" />
	</g>
	<g
   id="rect211_2_">
		<rect
   x="81"
   y="49"
   class="st1"
   width="1"
   height="1"
   id="rect249" />
	</g>
	<g
   id="rect213_2_">
		<rect
   x="83"
   y="49"
   class="st1"
   width="1"
   height="1"
   id="rect252" />
	</g>
	<g
   id="rect215_2_">
		<rect
   x="85"
   y="49"
   class="st1"
   width="1"
   height="1"
   id="rect255" />
	</g>
	<g
   id="rect217_2_">
		<rect
   x="79"
   y="51"
   class="st1"
   width="1"
   height="1"
   id="rect258" />
	</g>
	<g
   id="rect219_2_">
		<rect
   x="81"
   y="51"
   class="st1"
   width="1"
   height="1"
   id="rect261" />
	</g>
	<g
   id="rect221_2_">
		<rect
   x="79"
   y="53"
   class="st1"
   width="1"
   height="1"
   id="rect264" />
	</g>
	<g
   id="rect223_2_">
		<rect
   x="81"
   y="53"
   class="st1"
   width="1"
   height="1"
   id="rect267" />
	</g>
	<g
   id="rect225_2_">
		<rect
   x="83"
   y="51"
   class="st1"
   width="1"
   height="1"
   id="rect270" />
	</g>
	<g
   id="rect227_2_">
		<rect
   x="85"
   y="51"
   class="st1"
   width="1"
   height="1"
   id="rect273" />
	</g>
	<g
   id="rect229_2_">
		<rect
   x="83"
   y="53"
   class="st1"
   width="1"
   height="1"
   id="rect276" />
	</g>
	<g
   id="rect231_2_">
		<rect
   x="85"
   y="53"
   class="st1"
   width="1"
   height="1"
   id="rect279" />
	</g>
	<g
   id="path235_2_">
		<path
   connector-curvature="0"
   class="st0"
   d="M87,88"
   id="path282" />
	</g>
	<rect
   id="rect237_2_"
   x="72"
   y="72"
   class="st3"
   width="21"
   height="21"
   style="stroke-width:1.5;stroke-miterlimit:10;stroke-dasharray:none" />
	<g
   id="polygon239_2_">
		<polygon
   class="st0"
   points="83,76 84,76 88,79.9 88,80.9 87,80.9 83,80.9   "
   id="polygon286" />
	</g>
	<g
   id="polygon241_2_">
		<polygon
   class="st0"
   points="78,77 78,88 87,88 87,80.7 88,80.7 88,89 77,89 77,76 83.2,76 83.2,77   "
   id="polygon289" />
	</g>
	<g
   id="rect243_2_">
		<rect
   x="79"
   y="78"
   class="st0"
   width="1"
   height="1"
   id="rect292" />
	</g>
	<g
   id="rect245_2_">
		<rect
   x="81"
   y="78"
   class="st0"
   width="1"
   height="1"
   id="rect295" />
	</g>
	<g
   id="rect247_2_">
		<rect
   x="79"
   y="80"
   class="st0"
   width="1"
   height="1"
   id="rect298" />
	</g>
	<g
   id="rect249_2_">
		<rect
   x="81"
   y="80"
   class="st0"
   width="1"
   height="1"
   id="rect301" />
	</g>
	<g
   id="rect251_2_">
		<rect
   x="79"
   y="82"
   class="st0"
   width="1"
   height="1"
   id="rect304" />
	</g>
	<g
   id="rect253_2_">
		<rect
   x="81"
   y="82"
   class="st0"
   width="1"
   height="1"
   id="rect307" />
	</g>
	<g
   id="rect255_2_">
		<rect
   x="83"
   y="82"
   class="st0"
   width="1"
   height="1"
   id="rect310" />
	</g>
	<g
   id="rect257_2_">
		<rect
   x="85"
   y="82"
   class="st0"
   width="1"
   height="1"
   id="rect313" />
	</g>
	<g
   id="rect259_2_">
		<rect
   x="79"
   y="84"
   class="st0"
   width="1"
   height="1"
   id="rect316" />
	</g>
	<g
   id="rect261_2_">
		<rect
   x="81"
   y="84"
   class="st0"
   width="1"
   height="1"
   id="rect319" />
	</g>
	<g
   id="rect263_2_">
		<rect
   x="79"
   y="86"
   class="st0"
   width="1"
   height="1"
   id="rect322" />
	</g>
	<g
   id="rect265_2_">
		<rect
   x="81"
   y="86"
   class="st0"
   width="1"
   height="1"
   id="rect325" />
	</g>
	<g
   id="rect267_2_">
		<rect
   x="83"
   y="84"
   class="st0"
   width="1"
   height="1"
   id="rect328" />
	</g>
	<g
   id="rect269_2_">
		<rect
   x="85"
   y="84"
   class="st0"
   width="1"
   height="1"
   id="rect331" />
	</g>
	<g
   id="rect271_2_">
		<rect
   x="83"
   y="86"
   class="st0"
   width="1"
   height="1"
   id="rect334" />
	</g>
	<g
   id="rect273_2_">
		<rect
   x="85"
   y="86"
   class="st0"
   width="1"
   height="1"
   id="rect337" />
	</g>
	<rect
   id="rect277_2_"
   x="171"
   y="6.1"
   class="st0"
   width="21"
   height="21" />
	<g
   id="rect279_2_">
		<rect
   x="187"
   y="16.1"
   class="st1"
   width="1"
   height="1"
   id="rect341" />
	</g>
	<g
   id="rect281_2_">
		<rect
   x="189"
   y="16.1"
   class="st1"
   width="1"
   height="1"
   id="rect344" />
	</g>
	<g
   id="rect283_2_">
		<rect
   x="174"
   y="16.1"
   class="st1"
   width="1"
   height="1"
   id="rect347" />
	</g>
	<g
   id="circle285_2_">
		<path
   class="st1"
   d="M181,21.2c-2.8,0-5.1-2.3-5.1-5.1c0-2.8,2.3-5.1,5.1-5.1c2.8,0,5.1,2.3,5.1,5.1C186,18.9,183.8,21.2,181,21.2    z M181,13c-1.7,0-3.1,1.4-3.1,3.1c0,1.7,1.4,3.1,3.1,3.1s3.1-1.4,3.1-3.1C184.1,14.4,182.7,13,181,13z"
   id="path350" />
	</g>
	<g
   id="rect287_2_">
		
			<rect
   x="174.2"
   y="19.3"
   transform="matrix(0.7224 -0.6915 0.6915 0.7224 34.6945 127.7122)"
   class="st1"
   width="4.4"
   height="2.7"
   id="rect353" />
	</g>
	<g
   id="rect289_2_">
		<rect
   x="180"
   y="15.1"
   class="st1"
   width="2"
   height="2"
   id="rect356" />
	</g>
	<rect
   id="rect293_2_"
   x="171"
   y="39"
   class="st2"
   width="21"
   height="21" />
	<g
   id="rect295_2_">
		<rect
   x="187"
   y="49"
   class="st1"
   width="1"
   height="1"
   id="rect360" />
	</g>
	<g
   id="rect297_2_">
		<rect
   x="189"
   y="49"
   class="st1"
   width="1"
   height="1"
   id="rect363" />
	</g>
	<g
   id="rect299_2_">
		<rect
   x="174"
   y="49"
   class="st1"
   width="1"
   height="1"
   id="rect366" />
	</g>
	<g
   id="circle301_2_">
		<path
   class="st1"
   d="M181,54c-2.8,0-5.1-2.3-5.1-5.1s2.3-5.1,5.1-5.1c2.8,0,5.1,2.3,5.1,5.1S183.8,54,181,54z M181,45.8    c-1.7,0-3.1,1.4-3.1,3.1c0,1.7,1.4,3.1,3.1,3.1s3.1-1.4,3.1-3.1C184.1,47.2,182.7,45.8,181,45.8z"
   id="path369" />
	</g>
	<g
   id="rect303_2_">
		
			<rect
   x="174.2"
   y="52.2"
   transform="matrix(0.7224 -0.6915 0.6915 0.7224 11.9751 136.8322)"
   class="st1"
   width="4.4"
   height="2.7"
   id="rect372" />
	</g>
	<g
   id="rect305_2_">
		<rect
   x="180"
   y="48"
   class="st1"
   width="2"
   height="2"
   id="rect375" />
	</g>
	<rect
   id="rect309_2_"
   x="171"
   y="72"
   class="st3"
   width="21"
   height="21"
   style="stroke-width:1.5;stroke-miterlimit:10;stroke-dasharray:none" />
	<g
   id="rect311_2_">
		<rect
   x="187"
   y="82"
   class="st0"
   width="1"
   height="1"
   id="rect379" />
	</g>
	<g
   id="rect313_2_">
		<rect
   x="189"
   y="82"
   class="st0"
   width="1"
   height="1"
   id="rect382" />
	</g>
	<g
   id="rect315_2_">
		<rect
   x="174"
   y="82"
   class="st0"
   width="1"
   height="1"
   id="rect385" />
	</g>
	<g
   id="circle317_2_">
		<path
   class="st0"
   d="M181,87c-2.8,0-5.1-2.3-5.1-5.1c0-2.8,2.3-5.1,5.1-5.1c2.8,0,5.1,2.3,5.1,5.1C186,84.8,183.8,87,181,87z     M181,78.9c-1.7,0-3.1,1.4-3.1,3.1s1.4,3.1,3.1,3.1s3.1-1.4,3.1-3.1S182.7,78.9,181,78.9z"
   id="path388" />
	</g>
	<g
   id="rect319_2_">
		
			<rect
   x="174.2"
   y="85.2"
   transform="matrix(0.7224 -0.6915 0.6915 0.7224 -10.8523 145.9953)"
   class="st0"
   width="4.4"
   height="2.7"
   id="rect391" />
	</g>
	<g
   id="rect321_2_">
		<rect
   x="180"
   y="81"
   class="st0"
   width="2"
   height="2"
   id="rect394" />
	</g>
</g>
</svg>