<?xml version="1.0" encoding="UTF-8" standalone="no"?>
<!-- Generator: Adobe Illustrator 18.1.1, SVG Export Plug-In . SVG Version: 6.00 Build 0)  -->

<svg
   xmlns:dc="http://purl.org/dc/elements/1.1/"
   xmlns:cc="http://creativecommons.org/ns#"
   xmlns:rdf="http://www.w3.org/1999/02/22-rdf-syntax-ns#"
   xmlns:svg="http://www.w3.org/2000/svg"
   xmlns="http://www.w3.org/2000/svg"
   xmlns:sodipodi="http://sodipodi.sourceforge.net/DTD/sodipodi-0.dtd"
   xmlns:inkscape="http://www.inkscape.org/namespaces/inkscape"
   version="1.1"
   id="Layer_1"
   x="0px"
   y="0px"
   width="48px"
   height="66px"
   viewBox="0 0 48 66"
   enable-background="new 0 0 48 66"
   xml:space="preserve"
   inkscape:version="0.48.4 r9939"
   sodipodi:docname="lock.svg"><sodipodi:namedview
     pagecolor="#ffffff"
     bordercolor="#666666"
     borderopacity="1"
     objecttolerance="10"
     gridtolerance="10"
     guidetolerance="10"
     inkscape:pageopacity="0"
     inkscape:pageshadow="2"
     inkscape:window-width="640"
     inkscape:window-height="480"
     id="namedview13"
     showgrid="false"
     inkscape:zoom="4.9306345"
     inkscape:cx="24"
     inkscape:cy="33"
     inkscape:window-x="0"
     inkscape:window-y="21"
     inkscape:window-maximized="0"
     inkscape:current-layer="Layer_1" /><metadata
     id="metadata17"><rdf:RDF><cc:Work
         rdf:about=""><dc:format>image/svg+xml</dc:format><dc:type
           rdf:resource="http://purl.org/dc/dcmitype/StillImage" /></cc:Work></rdf:RDF></metadata><defs
     id="defs15" /><g
     id="g3"><path
       id="path5"
       d="M39.903,66h-32c-4.4,0-8-3.6-8-8V31.724c0-4.4,3.6-8,8-8h32c4.4,0,8,3.6,8,8V58   C47.903,62.4,44.303,66,39.903,66z"
       fill="#9f0000" /><polygon
       id="polygon7"
       points="21.811,44.767 25.811,44.767 27.874,54.927 19.874,54.927  "
       fill="#fe7d7d" /><ellipse
       id="ellipse9"
       ry="5.503"
       rx="5.469"
       cy="40.43"
       cx="23.874"
       fill="#fe7d7d" /><path
       id="path11"
       d="M10.782,24.445V13.66   c0,0,0.13-11.112,13.121-11.112s12.926,10.948,12.926,10.948v10.948"
       stroke-miterlimit="10"
       stroke-width="5.0157"
       stroke="#9f0000"
       fill="none" /></g></svg>